<?xml version="1.0" encoding="UTF-8" standalone="no"?>
<!-- Created with Inkscape (http://www.inkscape.org/) -->

<svg
   xmlns:dc="http://purl.org/dc/elements/1.1/"
   xmlns:cc="http://creativecommons.org/ns#"
   xmlns:rdf="http://www.w3.org/1999/02/22-rdf-syntax-ns#"
   xmlns:svg="http://www.w3.org/2000/svg"
   xmlns="http://www.w3.org/2000/svg"
   xmlns:sodipodi="http://sodipodi.sourceforge.net/DTD/sodipodi-0.dtd"
   xmlns:inkscape="http://www.inkscape.org/namespaces/inkscape"
   width="323.04614"
   height="293.82648"
   id="svg3016"
   version="1.1"
   inkscape:version="0.48.5 r10040"
   sodipodi:docname="surprise.svg"
   inkscape:export-filename="C:\Users\yotamberk\Desktop\designing\Elior\finals\surprise.png"
   inkscape:export-xdpi="90"
   inkscape:export-ydpi="90">
  <defs
     id="defs3018" />
  <sodipodi:namedview
     id="base"
     pagecolor="#ffffff"
     bordercolor="#666666"
     borderopacity="1.0"
     inkscape:pageopacity="0.0"
     inkscape:pageshadow="2"
     inkscape:zoom="0.98994949"
     inkscape:cx="173.19769"
     inkscape:cy="183.45181"
     inkscape:document-units="px"
     inkscape:current-layer="layer1"
     showgrid="false"
     inkscape:window-width="708"
     inkscape:window-height="426"
     inkscape:window-x="567"
     inkscape:window-y="70"
     inkscape:window-maximized="0"
     fit-margin-top="0"
     fit-margin-left="0"
     fit-margin-right="0"
     fit-margin-bottom="0" />
  <metadata
     id="metadata3021">
    <rdf:RDF>
      <cc:Work
         rdf:about="">
        <dc:format>image/svg+xml</dc:format>
        <dc:type
           rdf:resource="http://purl.org/dc/dcmitype/StillImage" />
        <dc:title></dc:title>
      </cc:Work>
    </rdf:RDF>
  </metadata>
  <g
     inkscape:label="Layer 1"
     inkscape:groupmode="layer"
     id="layer1"
     transform="translate(-241.33407,-277.70067)">
    <path
       sodipodi:type="arc"
       style="fill:#cccccc;fill-opacity:1;stroke:#000000;stroke-width:3.00119114;stroke-opacity:1;display:inline"
       id="path5834"
       sodipodi:cx="418.57144"
       sodipodi:cy="507.36218"
       sodipodi:rx="12.142858"
       sodipodi:ry="11.645612"
       d="m 425.75064,516.75442 c -5.40867,3.8026 -13.0075,2.68017 -16.97246,-2.50702 -3.96497,-5.18719 -2.79461,-12.47485 2.61406,-16.27745 5.40867,-3.8026 13.00751,-2.68017 16.97247,2.50702 3.90779,5.1124 2.83426,12.28336 -2.41547,16.13481"
       sodipodi:start="0.9382154"
       sodipodi:end="7.2009672"
       sodipodi:open="true"
       transform="matrix(0.65903037,-0.69116345,0.69116345,0.65903037,-317.37402,507.31148)" />
    <path
       sodipodi:nodetypes="ccccsccccccccccc"
       inkscape:connector-curvature="0"
       id="path5964"
       d="m 487.02332,511.10929 9.5758,-11.201 c -0.6964,7.9046 -0.9787,19.1742 -1.6175,26.569 l -21.5557,19.0892 c -2.5609,3.6156 -4.6809,5.5999 -6.8407,6.7257 -2.3312,1.215 -4.7089,1.43 -7.7373,1.6164 -47.4579,1.4385 -116.7235,2.86 -146.3957,2.2158 -5.6975,-0.675 -8.8347,-0.871 -5.759,-5.2941 l 12.718,-21.9131 14.7088,-0.3501 -8.8783,16.1599 c -2.1852,3.7555 -2.4021,3.6446 6.178,3.4405 l 120.7298,-1.7426 c 6.3645,-0.02 7.4139,-0.615 12.3998,-5.2578 l 21.158,-18.8526 z"
       style="fill:#cccccc;stroke:#000000;stroke-width:1.58258581;stroke-linecap:butt;stroke-linejoin:miter;stroke-opacity:1;display:inline" />
    <path
       sodipodi:nodetypes="ccccc"
       inkscape:connector-curvature="0"
       id="path5966"
       d="m 243.99051,344.7477 265.3263,-6.31447 -44.7788,184.5764 -162.1114,3.8581 z"
       style="fill:none;stroke:#000000;stroke-width:5.28287172;stroke-linecap:butt;stroke-linejoin:miter;stroke-opacity:1;display:inline" />
    <path
       sodipodi:nodetypes="ccccc"
       inkscape:connector-curvature="0"
       id="path5968"
       d="m 509.31681,338.43323 27.3006,-16.64032 c 4.3215,-13.60999 -25.811,102.65842 -42.2534,168.64302 -12.1135,12.8757 -25.9168,36.3948 -29.4152,31.8161 z"
       style="fill:none;stroke:#000000;stroke-width:5.28287172;stroke-linecap:butt;stroke-linejoin:miter;stroke-opacity:1;display:inline" />
    <path
       sodipodi:nodetypes="ccccc"
       inkscape:connector-curvature="0"
       id="path5970"
       d="m 243.97551,344.11897 c 15.8158,-8.16965 24.9103,-14.48801 34.2432,-20.8721 86.8836,-1.75331 155.708,-2.49954 258.6633,-2.85313 2.8515,1.48156 -19.0842,12.01107 -29.4064,19.97062 z"
       style="fill:none;stroke:#000000;stroke-width:5.28287172;stroke-linecap:butt;stroke-linejoin:miter;stroke-opacity:1;display:inline" />
    <path
       inkscape:connector-curvature="0"
       id="path5972"
       d="m 278.56291,322.63941 13.6111,-24.92659 11.145,-0.26523 -13.803,25.27793 z"
       style="fill:#cccccc;stroke:#000000;stroke-width:5.28287172;stroke-linecap:butt;stroke-linejoin:miter;stroke-opacity:1;display:inline" />
    <path
       style="fill:#cccccc;stroke:#000000;stroke-width:5.28287172;stroke-linecap:butt;stroke-linejoin:miter;stroke-opacity:1;display:inline"
       d="m 526.71431,319.84753 13.6111,-24.92657 11.145,-0.26523 -13.803,25.27791 z"
       id="path5974"
       inkscape:connector-curvature="0" />
    <path
       sodipodi:nodetypes="csscccc"
       inkscape:connector-curvature="0"
       id="path5976"
       d="m 291.29581,297.06913 c -2.465,-7.37129 3.8498,-14.21789 13.1481,-14.38665 52.9871,-0.96151 184.5612,-1.65793 247.9731,-2.3389 15.673,-0.16846 8.852,14.18454 -0.5778,14.29946 l -11.4743,0.27304 c -79.3436,-0.23154 -158.0043,3.34537 -236.0266,1.68535 z"
       style="fill:#ff0c00;fill-opacity:1;stroke:#000000;stroke-width:5.28287172;stroke-linecap:butt;stroke-linejoin:miter;stroke-opacity:1;display:inline" />
    <g
       id="g5986"
       style="display:inline"
       transform="matrix(0.97899489,-0.02329894,0.02329894,0.97899489,405.18936,50.951799)">
      <path
         style="fill:none;stroke:#000000;stroke-width:5.3946929;stroke-linecap:butt;stroke-linejoin:miter;stroke-opacity:1"
         d="m -156.987,346.44689 241.476747,0"
         id="path5988"
         inkscape:connector-curvature="0" />
      <path
         style="fill:none;stroke:#000000;stroke-width:5.3946929;stroke-linecap:butt;stroke-linejoin:miter;stroke-opacity:1"
         d="m -141.57357,396.54047 214.503267,0"
         id="path5990"
         inkscape:connector-curvature="0" />
      <path
         style="fill:none;stroke:#000000;stroke-width:5.3946929;stroke-linecap:butt;stroke-linejoin:miter;stroke-opacity:1"
         d="m -130.01353,445.34959 188.814237,0"
         id="path5992"
         inkscape:connector-curvature="0" />
      <path
         style="fill:none;stroke:#000000;stroke-width:5.3946929;stroke-linecap:butt;stroke-linejoin:miter;stroke-opacity:1"
         d="M 34.39616,297.63776 3.5693601,483.88311"
         id="path5994"
         inkscape:connector-curvature="0" />
      <path
         inkscape:connector-curvature="0"
         id="path5996"
         d="m -28.54193,297.63776 -30.8268,186.24535"
         style="fill:none;stroke:#000000;stroke-width:5.3946929;stroke-linecap:butt;stroke-linejoin:miter;stroke-opacity:1" />
      <path
         style="fill:none;stroke:#000000;stroke-width:5.3946929;stroke-linecap:butt;stroke-linejoin:miter;stroke-opacity:1"
         d="m -96.61781,297.63776 -23.12011,170.83195"
         id="path5998"
         inkscape:connector-curvature="0"
         sodipodi:nodetypes="cc" />
      <path
         style="fill:none;stroke:#000000;stroke-width:5.3946929;stroke-linecap:butt;stroke-linejoin:miter;stroke-opacity:1"
         d="M 115.15219,288.18726 66.903587,467.20713"
         id="path6000"
         inkscape:connector-curvature="0"
         sodipodi:nodetypes="cc" />
      <path
         style="fill:none;stroke:#000000;stroke-width:5.3946929;stroke-linecap:butt;stroke-linejoin:miter;stroke-opacity:1"
         d="M 84.510367,347.28292 113.48235,332.40823"
         id="path6002"
         inkscape:connector-curvature="0"
         sodipodi:nodetypes="cc" />
      <path
         style="fill:none;stroke:#000000;stroke-width:5.3946929;stroke-linecap:butt;stroke-linejoin:miter;stroke-opacity:1"
         d="M 72.249107,397.23632 100.60071,382.52786"
         id="path6004"
         inkscape:connector-curvature="0"
         sodipodi:nodetypes="cc" />
      <path
         style="fill:none;stroke:#000000;stroke-width:5.3946929;stroke-linecap:butt;stroke-linejoin:miter;stroke-opacity:1"
         d="m 59.533657,445.82737 27.30758,-14.42872"
         id="path6006"
         inkscape:connector-curvature="0"
         sodipodi:nodetypes="cc" />
    </g>
    <path
       style="fill:none;stroke:#000000;stroke-width:5.28287172;stroke-linecap:butt;stroke-linejoin:miter;stroke-opacity:1;display:inline"
       d="m 243.99051,344.7477 265.3263,-6.31447 -44.7788,184.5764 -162.1114,3.8581 z"
       id="path6008"
       inkscape:connector-curvature="0"
       sodipodi:nodetypes="ccccc" />
    <path
       style="fill:#023451;fill-opacity:1;stroke:#000000;stroke-width:1px;stroke-linecap:butt;stroke-linejoin:miter;stroke-opacity:1"
       d="m 300,526.6479 164.28571,-1.42857 21.42858,-15.71429 -4.45904,13.76577 -15,14.28572 -162.21464,0.59173 z"
       id="path3933"
       inkscape:connector-curvature="0"
       sodipodi:nodetypes="ccccccc" />
    <path
       style="fill:#ffffff;fill-opacity:1;stroke:#000000;stroke-width:1px;stroke-linecap:butt;stroke-linejoin:miter;stroke-opacity:1;display:inline"
       d="m 357.81671,489.01153 50.5076,0 -20.3093,35.1768 -21.3595,0 z"
       id="path6028"
       inkscape:connector-curvature="0" />
    <path
       sodipodi:open="true"
       transform="matrix(1.078301,-0.02566232,0.02566232,1.078301,-41.575936,41.474899)"
       sodipodi:end="7.2099548"
       sodipodi:start="0.92916156"
       d="m 364.50845,366.8379 c -18.64591,13.93013 -45.05402,10.10724 -58.98416,-8.53868 -13.93014,-18.64591 -10.10725,-45.05402 8.53867,-58.98416 18.64591,-13.93014 45.05403,-10.10725 58.98416,8.53867 13.90659,18.61439 10.12309,44.97266 -8.45798,58.92373"
       sodipodi:ry="42.142857"
       sodipodi:rx="42.142857"
       sodipodi:cy="333.07648"
       sodipodi:cx="339.28571"
       id="path6010"
       style="fill:#ffffff;fill-opacity:1;stroke:#000000;stroke-width:2;stroke-opacity:1;display:inline"
       sodipodi:type="arc" />
    <path
       transform="matrix(1.078301,-0.02566232,0.02566232,1.078301,59.212664,39.076239)"
       sodipodi:type="arc"
       style="fill:#ffffff;fill-opacity:1;stroke:#000000;stroke-width:2;stroke-opacity:1;display:inline"
       id="path6012"
       sodipodi:cx="339.28571"
       sodipodi:cy="333.07648"
       sodipodi:rx="42.142857"
       sodipodi:ry="42.142857"
       d="m 364.8671,366.56696 c -18.49628,14.12822 -44.94366,10.5872 -59.07188,-7.90909 -14.12821,-18.49628 -10.58719,-44.94366 7.90909,-59.07188 18.49628,-14.12821 44.94367,-10.58719 59.07188,7.90909 14.12108,18.48695 10.59168,44.91933 -7.88518,59.05361"
       sodipodi:start="0.91849584"
       sodipodi:end="7.2009672"
       sodipodi:open="true" />
    <path
       sodipodi:type="arc"
       style="fill:#000000;fill-opacity:1;stroke:#000000;stroke-width:2;stroke-linecap:round;stroke-linejoin:round;stroke-miterlimit:4;stroke-opacity:1;stroke-dasharray:none;display:inline"
       id="path6014"
       sodipodi:cx="350"
       sodipodi:cy="348.07648"
       sodipodi:rx="14.285714"
       sodipodi:ry="14.285714"
       d="m 358.44612,359.59797 c -6.36315,4.66466 -15.30295,3.28777 -19.96761,-3.07538 -4.66466,-6.36314 -3.28777,-15.30294 3.07537,-19.9676 6.36315,-4.66466 15.30295,-3.28777 19.96761,3.07537 4.59741,6.2714 3.33443,15.06805 -2.84173,19.79263"
       sodipodi:start="0.9382154"
       sodipodi:end="7.2009672"
       sodipodi:open="true"
       transform="matrix(1.078301,-0.02566232,0.02566232,1.078301,51.161664,23.504439)" />
    <path
       style="fill:#e9afaf;stroke:#000000;stroke-width:6.18583918;stroke-linecap:butt;stroke-linejoin:miter;stroke-opacity:1;display:inline"
       d="m 391.24481,459.86953 c 12.9499,-2.3634 25.5365,-4.5035 51.9189,-15.1156 l -5.8553,12.924 c -8.4267,25.9599 -25.0197,16.2099 -36.309,13.9134 z"
       id="path6016"
       inkscape:connector-curvature="0"
       sodipodi:nodetypes="ccccc" />
    <path
       style="fill:none;stroke:#000000;stroke-width:8.24778557;stroke-linecap:butt;stroke-linejoin:miter;stroke-opacity:1;display:inline"
       d="m 386.93101,364.66448 c 31.7227,-27.03657 73.785,-60.058 95.7658,-25.99516"
       id="path6018"
       inkscape:connector-curvature="0"
       sodipodi:nodetypes="cc" />
    <path
       style="fill:none;stroke:#000000;stroke-width:8.24778557;stroke-linecap:butt;stroke-linejoin:miter;stroke-opacity:1;display:inline"
       d="m 274.64271,349.18862 c 25.7638,-32.75778 55.9639,-28.41241 88.3115,-6.10697"
       id="path6020"
       inkscape:connector-curvature="0"
       sodipodi:nodetypes="cc" />
    <path
       sodipodi:type="arc"
       style="fill:#000000;fill-opacity:1;stroke:#000000;stroke-width:2;stroke-linecap:round;stroke-linejoin:round;stroke-miterlimit:4;stroke-opacity:1;stroke-dasharray:none;display:inline"
       id="path6022"
       sodipodi:cx="350"
       sodipodi:cy="348.07648"
       sodipodi:rx="14.285714"
       sodipodi:ry="14.285714"
       d="m 358.44612,359.59797 c -6.36315,4.66466 -15.30295,3.28777 -19.96761,-3.07538 -4.66466,-6.36314 -3.28777,-15.30294 3.07537,-19.9676 6.36315,-4.66466 15.30295,-3.28777 19.96761,3.07537 4.59741,6.2714 3.33443,15.06805 -2.84173,19.79263"
       sodipodi:start="0.9382154"
       sodipodi:end="7.2009672"
       sodipodi:open="true"
       transform="matrix(1.078301,-0.02566232,0.02566232,1.078301,-48.399336,28.712479)" />
    <path
       style="fill:#7cb4d5;fill-opacity:1;stroke:#000000;stroke-width:1px;stroke-linecap:butt;stroke-linejoin:miter;stroke-opacity:1;display:inline"
       d="m 288.05491,489.81243 74.7513,0 20.12205,14.6078 22.91515,-18.0376 70.0999,0 23.49304,-13.29311 -3.72924,27.24811 -26.8427,26.8427 -165.6572,0 z"
       id="path6024"
       inkscape:connector-curvature="0"
       sodipodi:nodetypes="cccccccccc" />
    <path
       style="fill:#7faac2;fill-opacity:1;stroke:#000000;stroke-width:1px;stroke-linecap:butt;stroke-linejoin:miter;stroke-opacity:1"
       d="m 382.30684,503.13506 24.01788,-16.26568 62.7363,-0.54976 c -27.28254,4.43488 -60.2914,-3.82537 -73.67296,19.72335 z"
       id="path3909"
       inkscape:connector-curvature="0"
       sodipodi:nodetypes="ccccc" />
    <path
       style="fill:#7faac2;fill-opacity:1;stroke:#000000;stroke-width:1px;stroke-linecap:butt;stroke-linejoin:miter;stroke-opacity:1"
       d="m 286.88333,489.70721 75.34733,0.2797 c 8.62665,3.92382 13.65013,9.0487 19.607,13.86244 l -10.10152,4.04061 c -3.19715,-17.12876 -52.3272,-13.99302 -84.85281,-18.18275 z"
       id="path3911"
       inkscape:connector-curvature="0"
       sodipodi:nodetypes="ccccc" />
    <path
       style="fill:none;stroke:#000000;stroke-width:1px;stroke-linecap:butt;stroke-linejoin:miter;stroke-opacity:1"
       d="m 382.72154,504.10189 -0.88388,23.99112"
       id="path3913"
       inkscape:connector-curvature="0"
       sodipodi:nodetypes="cc" />
    <path
       sodipodi:type="arc"
       style="opacity:0.95;fill:#000000;fill-opacity:1;stroke:none"
       id="path3915"
       sodipodi:cx="386.88843"
       sodipodi:cy="515.97119"
       sodipodi:rx="3.0304577"
       sodipodi:ry="3.0304577"
       d="m 388.72796,518.37946 c -1.33005,1.01595 -3.23186,0.76132 -4.24781,-0.56873 -1.01594,-1.33005 -0.76131,-3.23186 0.56874,-4.24781 1.33005,-1.01595 3.23186,-0.76132 4.24781,0.56873 1.01544,1.32939 0.76164,3.23012 -0.56702,4.2465"
       sodipodi:start="0.91849584"
       sodipodi:end="7.2009672"
       sodipodi:open="true"
       transform="translate(0,-4)" />
    <path
       sodipodi:open="true"
       sodipodi:end="7.2009672"
       sodipodi:start="0.91849584"
       d="m 388.72796,518.37946 c -1.33005,1.01595 -3.23186,0.76132 -4.24781,-0.56873 -1.01594,-1.33005 -0.76131,-3.23186 0.56874,-4.24781 1.33005,-1.01595 3.23186,-0.76132 4.24781,0.56873 1.01544,1.32939 0.76164,3.23012 -0.56702,4.2465"
       sodipodi:ry="3.0304577"
       sodipodi:rx="3.0304577"
       sodipodi:cy="515.97119"
       sodipodi:cx="386.88843"
       id="path3917"
       style="opacity:0.95;fill:#000000;fill-opacity:1;stroke:none"
       sodipodi:type="arc"
       transform="translate(0,6)" />
    <path
       style="fill:#7cb4d5;fill-opacity:1;stroke:#000000;stroke-width:1px;stroke-linecap:butt;stroke-linejoin:miter;stroke-opacity:1"
       d="m 476.37838,492.73477 c 1.80244,6.30438 3.60489,12.60875 5.40733,18.91313 10.21854,1.86565 18.40555,-0.33176 26.78572,-2.14286 C 506.79101,490.36346 503.67784,479.88482 500,473.07647 l -25.71428,13.57142"
       id="path3919"
       inkscape:connector-curvature="0"
       sodipodi:nodetypes="ccccc" />
    <path
       style="fill:#7cb4d5;fill-opacity:1;stroke:#000000;stroke-width:1px;stroke-linecap:butt;stroke-linejoin:miter;stroke-opacity:1"
       d="m 492.14285,490.21933 0.7143,3.57143 c 3.80952,-1.13872 6.90476,-0.33443 10.71428,-3.21429 l -1.07143,-2.5 z"
       id="path3923"
       inkscape:connector-curvature="0"
       sodipodi:nodetypes="ccccc" />
    <path
       style="fill:#0a570a;fill-opacity:1;stroke:#000000;stroke-width:1px;stroke-linecap:butt;stroke-linejoin:miter;stroke-opacity:1"
       d="m 490.0159,490.89594 c -2.92511,4.71924 -5.95727,2.64602 -7.9206,3.10443 -3.3452,0.78106 -2.48976,-3.20335 -2.52537,-5.80838 1.12384,-1.60531 0.98333,-3.31131 5.30329,-5.55585 l 16.07053,-6.71392 c 5.80835,-0.11013 8.01012,8.69579 5.14267,8.22915 z"
       id="path3961"
       inkscape:connector-curvature="0"
       sodipodi:nodetypes="csccccc" />
    <path
       style="fill:#023451;fill-opacity:1;stroke:#000000;stroke-width:1px;stroke-linecap:butt;stroke-linejoin:miter;stroke-opacity:1"
       d="m 481.78572,479.86218 c 2.98988,3.06443 7.95704,1.68001 7.5,12.50001 7.06996,-1.69097 14.53739,-3.24944 16.07142,-6.78572 -2.00406,-8.29326 -5.01991,-12.5394 -8.92856,-13.21429 z"
       id="path3921"
       inkscape:connector-curvature="0"
       sodipodi:nodetypes="ccccc" />
    <path
       style="fill:#49dada;fill-opacity:1;stroke:#000000;stroke-width:1px;stroke-linecap:butt;stroke-linejoin:miter;stroke-opacity:1"
       d="m 490.35714,483.79075 1.42858,3.57143 7.85714,0 4.28571,-5.35714 -2.14285,-3.21429 -3.92858,5.35715 z"
       id="path3925"
       inkscape:connector-curvature="0"
       sodipodi:nodetypes="ccccccc" />
    <path
       style="fill:none;stroke:#000000;stroke-width:1px;stroke-linecap:butt;stroke-linejoin:miter;stroke-opacity:1"
       d="m 420.71429,502.71932 33.92857,0 -2.10783,9.36516 c -1.98444,8.81691 -29.93432,11.59542 -31.10646,-1.42857 z"
       id="path3927"
       inkscape:connector-curvature="0"
       sodipodi:nodetypes="ccssc" />
    <path
       style="fill:none;stroke:#000000;stroke-width:1px;stroke-linecap:butt;stroke-linejoin:miter;stroke-opacity:1"
       d="m 420.71429,503.25504 33.39285,-0.35714 -0.71428,4.46428 c -10.83333,2.23229 -21.66667,2.34969 -32.5,-0.17857 z"
       id="path3929"
       inkscape:connector-curvature="0"
       sodipodi:nodetypes="ccccc" />
    <path
       transform="matrix(0.5875426,0,0,0.5875426,211.00356,203.63756)"
       sodipodi:open="true"
       sodipodi:end="7.2009672"
       sodipodi:start="0.91849584"
       d="m 388.72796,518.37946 c -1.33005,1.01595 -3.23186,0.76132 -4.24781,-0.56873 -1.01594,-1.33005 -0.76131,-3.23186 0.56874,-4.24781 1.33005,-1.01595 3.23186,-0.76132 4.24781,0.56873 1.01544,1.32939 0.76164,3.23012 -0.56702,4.2465"
       sodipodi:ry="3.0304577"
       sodipodi:rx="3.0304577"
       sodipodi:cy="515.97119"
       sodipodi:cx="386.88843"
       id="path3931"
       style="opacity:0.95;fill:#000000;fill-opacity:1;stroke:none"
       sodipodi:type="arc" />
    <path
       sodipodi:nodetypes="ccssc"
       inkscape:connector-curvature="0"
       id="path3935"
       d="m 314.64827,502.71932 33.92857,0 -2.10783,9.36516 c -1.98444,8.81691 -29.93432,11.59542 -31.10646,-1.42857 z"
       style="fill:none;stroke:#000000;stroke-width:1px;stroke-linecap:butt;stroke-linejoin:miter;stroke-opacity:1" />
    <path
       sodipodi:nodetypes="ccccc"
       inkscape:connector-curvature="0"
       id="path3937"
       d="m 314.64827,503.25504 33.39285,-0.35714 -0.71428,4.46428 c -10.83333,2.23229 -21.66667,2.34969 -32.5,-0.17857 z"
       style="fill:none;stroke:#000000;stroke-width:1px;stroke-linecap:butt;stroke-linejoin:miter;stroke-opacity:1" />
    <path
       sodipodi:type="arc"
       style="opacity:0.95;fill:#000000;fill-opacity:1;stroke:none"
       id="path3939"
       sodipodi:cx="386.88843"
       sodipodi:cy="515.97119"
       sodipodi:rx="3.0304577"
       sodipodi:ry="3.0304577"
       d="m 388.72796,518.37946 c -1.33005,1.01595 -3.23186,0.76132 -4.24781,-0.56873 -1.01594,-1.33005 -0.76131,-3.23186 0.56874,-4.24781 1.33005,-1.01595 3.23186,-0.76132 4.24781,0.56873 1.01544,1.32939 0.76164,3.23012 -0.56702,4.2465"
       sodipodi:start="0.91849584"
       sodipodi:end="7.2009672"
       sodipodi:open="true"
       transform="matrix(0.5875426,0,0,0.5875426,104.93754,203.63756)" />
    <path
       sodipodi:type="arc"
       style="fill:#cccccc;fill-opacity:1;stroke:#000000;stroke-width:3.00119114;stroke-opacity:1;display:inline"
       id="path5850"
       sodipodi:cx="418.57144"
       sodipodi:cy="507.36218"
       sodipodi:rx="12.142858"
       sodipodi:ry="11.41278"
       d="m 425.75064,516.56664 c -5.40867,3.72657 -13.0075,2.62658 -16.97246,-2.4569 -3.96497,-5.08348 -2.79461,-12.22544 2.61406,-15.95201 5.40867,-3.72658 13.00751,-2.62659 16.97247,2.45689 3.90779,5.01019 2.83426,12.03779 -2.41547,15.81223"
       sodipodi:start="0.9382154"
       sodipodi:end="7.2009672"
       sodipodi:open="true"
       transform="matrix(0.65903037,-0.69116345,0.69116345,0.65903037,-136.59241,490.68257)" />
    <path
       transform="matrix(0.65903037,-0.69116345,0.69116345,0.65903037,-163.08951,513.96037)"
       sodipodi:open="true"
       sodipodi:end="7.2009672"
       sodipodi:start="0.9382154"
       d="m 425.75064,516.19108 c -5.40867,3.57452 -13.0075,2.51941 -16.97246,-2.35665 -3.96497,-4.87607 -2.79461,-11.72662 2.61406,-15.30114 5.40867,-3.57453 13.00751,-2.51942 16.97247,2.35665 3.90779,4.80576 2.83426,11.54662 -2.41547,15.16706"
       sodipodi:ry="10.947118"
       sodipodi:rx="12.142858"
       sodipodi:cy="507.36218"
       sodipodi:cx="418.57144"
       id="path5852"
       style="fill:#cccccc;fill-opacity:1;stroke:#000000;stroke-width:3.00119114;stroke-opacity:1;display:inline"
       sodipodi:type="arc" />
    <path
       transform="matrix(0.2700451,-0.28321198,0.28321198,0.2700451,233.91418,517.40627)"
       sodipodi:open="true"
       sodipodi:end="7.2009672"
       sodipodi:start="0.9382154"
       d="m 425.75064,516.56664 c -5.40867,3.72657 -13.0075,2.62658 -16.97246,-2.4569 -3.96497,-5.08348 -2.79461,-12.22544 2.61406,-15.95201 5.40867,-3.72658 13.00751,-2.62659 16.97247,2.45689 3.90779,5.01019 2.83426,12.03779 -2.41547,15.81223"
       sodipodi:ry="11.41278"
       sodipodi:rx="12.142858"
       sodipodi:cy="507.36218"
       sodipodi:cx="418.57144"
       id="path5854"
       style="fill:#800000;fill-opacity:1;stroke:#000000;stroke-width:6.06629515;stroke-opacity:1;display:inline"
       sodipodi:type="arc" />
    <path
       sodipodi:type="arc"
       style="fill:#800000;fill-opacity:1;stroke:#000000;stroke-width:6.06629515;stroke-opacity:1;display:inline"
       id="path5856"
       sodipodi:cx="418.57144"
       sodipodi:cy="507.36218"
       sodipodi:rx="12.142858"
       sodipodi:ry="11.41278"
       d="m 425.75064,516.56664 c -5.40867,3.72657 -13.0075,2.62658 -16.97246,-2.4569 -3.96497,-5.08348 -2.79461,-12.22544 2.61406,-15.95201 5.40867,-3.72658 13.00751,-2.62659 16.97247,2.45689 3.90779,5.01019 2.83426,12.03779 -2.41547,15.81223"
       sodipodi:start="0.9382154"
       sodipodi:end="7.2009672"
       sodipodi:open="true"
       transform="matrix(0.2700451,-0.28321198,0.28321198,0.2700451,207.04728,540.66027)" />
    <path
       style="opacity:0.95;fill:#1a1a1a;fill-opacity:1;stroke:none"
       d="m 484.9765,492.37961 c -1.19309,0.87463 -2.8693,0.61646 -3.74393,-0.57663 -0.87462,-1.19309 -0.9351,-1.50741 -0.31622,-2.85107 0.65205,-1.41565 2.89137,-1.66581 4.63678,0.39807 0.94149,1.11327 -0.0891,2.64669 -1.24711,3.53255"
       id="path3963"
       inkscape:connector-curvature="0"
       sodipodi:nodetypes="csssc" />
  </g>
</svg>
